<svg xmlns="http://www.w3.org/2000/svg" xmlns:xlink="http://www.w3.org/1999/xlink" viewBox="0 0 413 127.6"><defs><style>.a{fill:#a6a6a6;}.b{fill:url(#a);}.c,.d,.e,.f,.g{fill:#fff;}.c,.d,.e,.f{stroke:#fff;stroke-miterlimit:10;}.c{stroke-width:0.71px;}.d{stroke-width:0.51px;}.e{stroke-width:0.36px;}.f{stroke-width:0.2px;}</style><linearGradient id="a" x1="62.7" y1="25.58" x2="62.7" y2="102.02" gradientUnits="userSpaceOnUse"><stop offset="0" stop-color="#33c5f3"/><stop offset="1" stop-color="#4269b1"/></linearGradient></defs><title>A_WU_RU</title><path class="a" d="M374.56.2H34L30.34.26A53.57,53.57,0,0,0,22.25,1a26.91,26.91,0,0,0-7.66,2.53A25.67,25.67,0,0,0,8.07,8.26a25.31,25.31,0,0,0-4.76,6.53A26.72,26.72,0,0,0,.79,22.47a51.62,51.62,0,0,0-.72,8.08C0,31.78,0,33,0,34.26v59.5C0,95,0,96.23.07,97.47a51.66,51.66,0,0,0,.72,8.08,26.72,26.72,0,0,0,2.52,7.68A26.07,26.07,0,0,0,14.59,124.5,27,27,0,0,0,22.25,127a54.58,54.58,0,0,0,8.08.72c1.25,0,2.48,0,3.71,0H378.93c1.23,0,2.48,0,3.72,0a53.29,53.29,0,0,0,8.05-.72,27.26,27.26,0,0,0,7.71-2.54,25.18,25.18,0,0,0,6.52-4.75,26,26,0,0,0,4.77-6.52,26.93,26.93,0,0,0,2.51-7.68,55.53,55.53,0,0,0,.73-8.08c0-1.25,0-2.46,0-3.72,0-1.47,0-2.92,0-4.41V38.66c0-1.47,0-2.94,0-4.4,0-1.23,0-2.47,0-3.71a55.58,55.58,0,0,0-.73-8.08,27,27,0,0,0-2.51-7.68,26,26,0,0,0-4.77-6.53,25.53,25.53,0,0,0-6.52-4.75A27.06,27.06,0,0,0,390.69,1a53.33,53.33,0,0,0-8.05-.71L378.93.21Z" transform="translate(0 -0.2)"/><path d="M374.56,2.69h4.55l3.46,0a54.37,54.37,0,0,1,7.71.67,24.65,24.65,0,0,1,7,2.3,22.88,22.88,0,0,1,5.9,4.3,23.64,23.64,0,0,1,4.3,5.89,24,24,0,0,1,2.28,7,50.59,50.59,0,0,1,.7,7.67c0,1.22,0,2.44,0,3.72,0,1.45,0,2.89,0,4.35V89.35c0,1.47,0,2.91,0,4.41,0,1.24,0,2.45,0,3.64a51.17,51.17,0,0,1-.7,7.73,24.6,24.6,0,0,1-2.25,7,24.14,24.14,0,0,1-4.33,5.91,22.83,22.83,0,0,1-5.89,4.28,25,25,0,0,1-7,2.31,55.06,55.06,0,0,1-7.67.68c-1.23,0-2.46,0-3.7,0H34c-1.22,0-2.43,0-3.63,0a55.52,55.52,0,0,1-7.72-.68,25,25,0,0,1-7-2.31A23.57,23.57,0,0,1,5.53,112.1a24.69,24.69,0,0,1-2.29-7,50.76,50.76,0,0,1-.68-7.71c0-.85,0-1.71,0-2.57l0-1.07V34.3l0-1.12c0-.85,0-1.7,0-2.57a49.89,49.89,0,0,1,.69-7.7,24.11,24.11,0,0,1,2.29-7A22.64,22.64,0,0,1,9.83,10a23,23,0,0,1,5.9-4.3,24.6,24.6,0,0,1,7-2.3,54.64,54.64,0,0,1,7.69-.67L34,2.7H374.56" transform="translate(0 -0.2)"/><rect class="b" x="24.48" y="25.58" width="76.44" height="76.44" rx="9.99" ry="9.99"/><path class="c" d="M62.31,82.28l-6.69-6.69a.55.55,0,0,0-.39-.16H28.33a.55.55,0,0,1-.55-.55h0a.55.55,0,0,1,.55-.55H55.68a.55.55,0,0,1,.39.16l6.23,6.23a.55.55,0,0,0,.78,0l6.23-6.23a.55.55,0,0,1,.39-.16H97.06a.55.55,0,0,1,.55.55h0a.55.55,0,0,1-.55.55H70.17a.55.55,0,0,0-.39.16l-6.69,6.69A.55.55,0,0,1,62.31,82.28Z" transform="translate(0 -0.2)"/><path class="d" d="M62.34,71,56.26,64.9a.5.5,0,0,0-.35-.15H31.45a.5.5,0,0,1-.5-.5h0a.5.5,0,0,1,.5-.5H56.32a.5.5,0,0,1,.35.15l5.67,5.67a.5.5,0,0,0,.71,0l5.67-5.67a.5.5,0,0,1,.35-.15H93.95a.5.5,0,0,1,.5.5h0a.5.5,0,0,1-.5.5H69.49a.5.5,0,0,0-.35.15L63.05,71A.5.5,0,0,1,62.34,71Z" transform="translate(0 -0.2)"/><path class="e" d="M62.38,60.63,56.9,55.15a.45.45,0,0,0-.32-.13h-22a.45.45,0,0,1-.45-.45h0a.45.45,0,0,1,.45-.45H57a.45.45,0,0,1,.32.13l5.1,5.1a.45.45,0,0,0,.64,0l5.1-5.1a.45.45,0,0,1,.32-.13H90.83a.45.45,0,0,1,.45.45h0a.45.45,0,0,1-.45.45h-22a.45.45,0,0,0-.32.13L63,60.63A.45.45,0,0,1,62.38,60.63Z" transform="translate(0 -0.2)"/><path class="f" d="M62.41,51.24l-4.87-4.87a.4.4,0,0,0-.28-.12H37.68a.4.4,0,0,1-.4-.4h0a.4.4,0,0,1,.4-.4H57.59a.4.4,0,0,1,.28.12l4.54,4.54a.4.4,0,0,0,.57,0l4.54-4.54a.4.4,0,0,1,.28-.12H87.72a.4.4,0,0,1,.4.4h0a.4.4,0,0,1-.4.4H68.14a.4.4,0,0,0-.28.12L63,51.24A.4.4,0,0,1,62.41,51.24Z" transform="translate(0 -0.2)"/><path class="g" d="M132.13,60V51.66h2.27q.36-.82.67-1.67a19.27,19.27,0,0,0,.57-1.91q.26-1.07.5-2.45t.44-3.28q.24-2,.38-3.94t.21-3.63q.08-1.69.1-3.06t0-2.24H153.1V51.66h2.84V60H152.8V54.6H135.28V60Zm8.32-27.57q0,2.44-.2,4.87t-.47,4.89q-.19,1.95-.38,3.31T139,47.89q-.21,1.05-.48,1.93t-.61,1.84h11.74V32.41Z" transform="translate(0 -0.2)"/><path class="g" d="M174.28,45.42a13.21,13.21,0,0,1-.58,4.06A8.71,8.71,0,0,1,172,52.54a7.25,7.25,0,0,1-2.67,1.94,9.81,9.81,0,0,1-7.15,0,7.25,7.25,0,0,1-2.67-1.94,8.69,8.69,0,0,1-1.67-3.07,13.19,13.19,0,0,1-.58-4.06,13,13,0,0,1,.58-4,8.71,8.71,0,0,1,1.67-3.06,7.27,7.27,0,0,1,2.67-1.94,9.81,9.81,0,0,1,7.15,0A7.26,7.26,0,0,1,172,38.34a8.73,8.73,0,0,1,1.67,3.06A13,13,0,0,1,174.28,45.42Zm-3.14,0a10.78,10.78,0,0,0-.34-2.79,6.47,6.47,0,0,0-1-2.2A4.89,4.89,0,0,0,168.08,39a4.94,4.94,0,0,0-2.32-.52,4.72,4.72,0,0,0-4,2,6.46,6.46,0,0,0-1,2.2,10.76,10.76,0,0,0-.34,2.79,11,11,0,0,0,.34,2.83,6.44,6.44,0,0,0,1,2.21,5,5,0,0,0,8,0,6.45,6.45,0,0,0,1-2.21A11,11,0,0,0,171.13,45.42Z" transform="translate(0 -0.2)"/><path class="g" d="M192,29.25q0,.26-.09.62a3.5,3.5,0,0,1-.23.78,4.28,4.28,0,0,1-.47.83,3.45,3.45,0,0,1-.79.78l-.5.32a2.4,2.4,0,0,1-.56.24,5.6,5.6,0,0,1-.87.17,13.54,13.54,0,0,1-1.42.09l-1.3,0a5.76,5.76,0,0,0-4.28,1.94,7.51,7.51,0,0,0-1.34,2.16,12.56,12.56,0,0,0-.79,2.82,8.28,8.28,0,0,1,.89-1.34,5.76,5.76,0,0,1,1.32-1.18,6.89,6.89,0,0,1,1.85-.84,8.64,8.64,0,0,1,2.46-.32,8.13,8.13,0,0,1,3,.56,6.89,6.89,0,0,1,2.5,1.69,8.28,8.28,0,0,1,1.7,2.8,11,11,0,0,1,.63,3.9q0,.7-.1,1.7a12.44,12.44,0,0,1-.41,2.09,11.11,11.11,0,0,1-.88,2.18,7,7,0,0,1-1.52,1.94,7.56,7.56,0,0,1-2.31,1.39,8.82,8.82,0,0,1-3.26.54A11.52,11.52,0,0,1,183.6,55a8,8,0,0,1-1.76-.47,7.27,7.27,0,0,1-1.71-1A7,7,0,0,1,178.62,52a9.87,9.87,0,0,1-.67-1.1,8.52,8.52,0,0,1-.61-1.51,13.12,13.12,0,0,1-.44-2.1,22,22,0,0,1-.16-2.87q0-1.09.1-2.48a27.67,27.67,0,0,1,.36-2.82,21.7,21.7,0,0,1,.68-2.78A9.43,9.43,0,0,1,179,34a8.56,8.56,0,0,1,1.5-1.78,6.65,6.65,0,0,1,1.67-1.08,8,8,0,0,1,1.91-.56,18.34,18.34,0,0,1,2.22-.22l1.11,0q.55,0,.93-.06a2.46,2.46,0,0,0,.64-.15.93.93,0,0,0,.41-.31,1.73,1.73,0,0,0,.26-.58ZM179.88,45.78q0,.51.06,1.21a9.44,9.44,0,0,0,.25,1.46,7.89,7.89,0,0,0,.55,1.51,4.82,4.82,0,0,0,.95,1.34,4.51,4.51,0,0,0,1.46,1,6.12,6.12,0,0,0,4.36-.07A4.52,4.52,0,0,0,189,51.07a5.06,5.06,0,0,0,.91-1.53,9.44,9.44,0,0,0,.46-1.63,10.35,10.35,0,0,0,.17-1.45q0-.66,0-1a10.65,10.65,0,0,0-.28-2.44,6.35,6.35,0,0,0-.91-2.12,4.74,4.74,0,0,0-1.62-1.49,4.93,4.93,0,0,0-2.45-.56,5.06,5.06,0,0,0-2.44.56,4.87,4.87,0,0,0-1.69,1.5,6.71,6.71,0,0,0-1,2.2A10.64,10.64,0,0,0,179.88,45.78Z" transform="translate(0 -0.2)"/><path class="g" d="M197.25,41.78a6.7,6.7,0,0,1,.63-2.83,5.09,5.09,0,0,1,1.57-1.87,6.45,6.45,0,0,1,2.35-1,13.07,13.07,0,0,1,3-.32,12.16,12.16,0,0,1,2.59.27,7,7,0,0,1,2.23.88,4.74,4.74,0,0,1,1.56,1.57,4.43,4.43,0,0,1,.59,2.35V51.45a1.23,1.23,0,0,0,.24.76.9.9,0,0,0,.77.32,3,3,0,0,0,.5,0l.53-.09v2.17l-.78.19a4.28,4.28,0,0,1-.91.09,6.34,6.34,0,0,1-1.41-.14,2.48,2.48,0,0,1-1-.45,2.08,2.08,0,0,1-.62-.82,4,4,0,0,1-.29-1.24,12.39,12.39,0,0,1-1.23,1.17,7.54,7.54,0,0,1-1.45.94,8.1,8.1,0,0,1-1.79.63,9.88,9.88,0,0,1-2.24.23,6.33,6.33,0,0,1-2.06-.34,5.56,5.56,0,0,1-1.79-1,4.94,4.94,0,0,1-1.27-1.65,5.14,5.14,0,0,1-.48-2.28,5.79,5.79,0,0,1,.48-2.45,5.26,5.26,0,0,1,1.25-1.73,5.56,5.56,0,0,1,1.76-1.07,8.44,8.44,0,0,1,2-.5l5.14-.63a1.72,1.72,0,0,0,1.15-.57,2.39,2.39,0,0,0,.42-1.56A2.65,2.65,0,0,0,207.58,39a5.59,5.59,0,0,0-3.12-.73,4.68,4.68,0,0,0-3.11.88,3.69,3.69,0,0,0-1.16,2.64Zm11.35,3.5a3.26,3.26,0,0,1-.93.45,9.25,9.25,0,0,1-1.22.3q-.67.12-1.42.21l-1.5.2a10.07,10.07,0,0,0-1.57.34,4.68,4.68,0,0,0-1.25.58,2.62,2.62,0,0,0-.82.86,2.34,2.34,0,0,0-.29,1.19,3.59,3.59,0,0,0,.25,1.38,2.86,2.86,0,0,0,.68,1,2.8,2.8,0,0,0,1.05.62,4.25,4.25,0,0,0,1.35.21,5.87,5.87,0,0,0,1.06-.11,8.28,8.28,0,0,0,1.23-.33,7.3,7.3,0,0,0,1.24-.57,4.91,4.91,0,0,0,1.09-.85,4,4,0,0,0,.77-1.13,3.36,3.36,0,0,0,.29-1.42Z" transform="translate(0 -0.2)"/><path class="g" d="M216.75,36.29h7.79a8.34,8.34,0,0,1,5,1.25,4.25,4.25,0,0,1,1.67,3.62,3.61,3.61,0,0,1-.62,2.14A6,6,0,0,1,229,44.84a5.41,5.41,0,0,1,2.31,1.57,4,4,0,0,1,.85,2.65,5.94,5.94,0,0,1-.43,2.31,4.43,4.43,0,0,1-1.3,1.74,6,6,0,0,1-2.21,1.1,11.56,11.56,0,0,1-3.17.38h-8.29ZM219.89,44h4.75a4.38,4.38,0,0,0,2.51-.63,2.22,2.22,0,0,0,.92-2,2.74,2.74,0,0,0-.26-1.26,2.21,2.21,0,0,0-.68-.81,2.71,2.71,0,0,0-1-.44,4.77,4.77,0,0,0-1.1-.13h-5.18Zm0,8h4.79a9.18,9.18,0,0,0,2.08-.2,3.51,3.51,0,0,0,1.32-.57,2.06,2.06,0,0,0,.7-.91,3.29,3.29,0,0,0,.21-1.2,3.36,3.36,0,0,0-.21-1.2,2,2,0,0,0-.7-.91,3.62,3.62,0,0,0-1.32-.56,9.21,9.21,0,0,0-2.08-.2h-4.79Z" transform="translate(0 -0.2)"/><path class="g" d="M235.92,36.29h3.14v14h.07l9-14h3.61V54.6h-3.16v-14h-.07l-9,14h-3.61Z" transform="translate(0 -0.2)"/><path class="g" d="M261.21,39h-6.31V36.29h15.76V39h-6.31V54.6h-3.14Z" transform="translate(0 -0.2)"/><path class="g" d="M273.84,36.29H277v6.89h5.08a8.33,8.33,0,0,1,2.68.4,5.65,5.65,0,0,1,2,1.15A4.93,4.93,0,0,1,288,46.52a6.68,6.68,0,0,1,0,4.75,4.94,4.94,0,0,1-1.26,1.79,5.55,5.55,0,0,1-2,1.14,8.47,8.47,0,0,1-2.68.39h-8.22ZM277,52.08h4.46a6.5,6.5,0,0,0,1.53-.17,3.31,3.31,0,0,0,1.22-.56,2.65,2.65,0,0,0,.8-1,3.41,3.41,0,0,0,.29-1.48,3.22,3.22,0,0,0-.3-1.45,2.65,2.65,0,0,0-.84-1,3.66,3.66,0,0,0-1.3-.56,7.4,7.4,0,0,0-1.7-.18H277Z" transform="translate(0 -0.2)"/><path class="g" d="M307.35,36.3h7.79a8.34,8.34,0,0,1,5,1.25,4.25,4.25,0,0,1,1.67,3.62,3.61,3.61,0,0,1-.62,2.14,6,6,0,0,1-1.62,1.54,5.4,5.4,0,0,1,2.31,1.57,4,4,0,0,1,.85,2.65,6,6,0,0,1-.43,2.31,4.45,4.45,0,0,1-1.3,1.74,6.06,6.06,0,0,1-2.21,1.1,11.56,11.56,0,0,1-3.17.38h-8.29ZM310.5,44h4.75a4.39,4.39,0,0,0,2.51-.63,2.22,2.22,0,0,0,.92-2,2.75,2.75,0,0,0-.26-1.26,2.22,2.22,0,0,0-.68-.81,2.72,2.72,0,0,0-1-.44,4.77,4.77,0,0,0-1.1-.13H310.5Zm0,8h4.79a9.15,9.15,0,0,0,2.08-.2,3.51,3.51,0,0,0,1.32-.57,2.06,2.06,0,0,0,.7-.91,3.29,3.29,0,0,0,.21-1.2,3.36,3.36,0,0,0-.21-1.21,2,2,0,0,0-.7-.91,3.63,3.63,0,0,0-1.32-.56,9.22,9.22,0,0,0-2.08-.2H310.5Z" transform="translate(0 -0.2)"/><path class="g" d="M186,72.83l4.73,20.4,5.68-20.4H200l5.69,20.44,4.73-20.44h3.73l-6.6,25.11H204l-5.79-20.82-5.83,20.82h-3.57l-6.56-25.11Z" transform="translate(0 -0.2)"/><path class="g" d="M225.45,86.86a1.67,1.67,0,0,0,1.42-.89,2.73,2.73,0,0,0,.2-1.18A2.51,2.51,0,0,0,226,82.5a6,6,0,0,0-3.2-.71,4,4,0,0,0-3.41,1.31,4.32,4.32,0,0,0-.73,2.15h-2.87q.08-3.39,2.19-4.72a9,9,0,0,1,4.89-1.33,9.94,9.94,0,0,1,5.24,1.23,4.18,4.18,0,0,1,2,3.83V94.79a1.35,1.35,0,0,0,.2.77,1,1,0,0,0,.83.29l.46,0,.55-.08V98a8.53,8.53,0,0,1-1.09.26,8,8,0,0,1-1,.05,2.53,2.53,0,0,1-2.31-1.13,4.35,4.35,0,0,1-.53-1.69,7.83,7.83,0,0,1-2.7,2.14,8.36,8.36,0,0,1-3.88.91A5.77,5.77,0,0,1,216.4,97a5.13,5.13,0,0,1-1.62-3.87,5,5,0,0,1,1.59-3.94,7.57,7.57,0,0,1,4.17-1.72ZM219,95.17a3.62,3.62,0,0,0,2.31.77,7,7,0,0,0,3.14-.75A4.23,4.23,0,0,0,227,91.11V88.63a5.27,5.27,0,0,1-1.45.6,12.11,12.11,0,0,1-1.74.34l-1.86.24a7.2,7.2,0,0,0-2.51.7A2.72,2.72,0,0,0,218,93.07,2.53,2.53,0,0,0,219,95.17Z" transform="translate(0 -0.2)"/><path class="g" d="M235.19,72.83h3.08V97.93h-3.08Z" transform="translate(0 -0.2)"/><path class="g" d="M243,72.83H246V97.93H243Z" transform="translate(0 -0.2)"/><path class="g" d="M262,80.13a6.94,6.94,0,0,1,2.77,2.37A8.19,8.19,0,0,1,266,85.73a21.23,21.23,0,0,1,.27,4H252.91a7.91,7.91,0,0,0,1.31,4.48A4.35,4.35,0,0,0,258,95.93a4.86,4.86,0,0,0,3.82-1.6,5.44,5.44,0,0,0,1.13-2.15h3a6.36,6.36,0,0,1-.79,2.25,8.08,8.08,0,0,1-1.51,2,7.1,7.1,0,0,1-3.44,1.85,10.41,10.41,0,0,1-2.49.27A7.64,7.64,0,0,1,252,96.1a9.71,9.71,0,0,1-2.36-7A10.57,10.57,0,0,1,252,82a7.82,7.82,0,0,1,6.22-2.75A8.26,8.26,0,0,1,262,80.13Zm1.1,7.19a8,8,0,0,0-.86-3.2A4.42,4.42,0,0,0,258,81.9a4.62,4.62,0,0,0-3.53,1.53A5.81,5.81,0,0,0,253,87.32Z" transform="translate(0 -0.2)"/><path class="g" d="M270.74,74.52h3.11v5.11h2.92v2.51h-2.92V94.09a1.29,1.29,0,0,0,.65,1.28,2.75,2.75,0,0,0,1.2.19h.48l.6-.06v2.44a6.93,6.93,0,0,1-1.1.22,10.63,10.63,0,0,1-1.24.07,3.34,3.34,0,0,1-2.92-1.1,4.89,4.89,0,0,1-.77-2.86V82.14h-2.48V79.63h2.48Z" transform="translate(0 -0.2)"/></svg>